<svg width="28" height="28" viewBox="0 0 28 28" fill="none" xmlns="http://www.w3.org/2000/svg">
<path d="M22.1668 5.83359H21.0002V3.50025C21.0002 3.19084 20.8772 2.89409 20.6585 2.6753C20.4397 2.4565 20.1429 2.33359 19.8335 2.33359C19.5241 2.33359 19.2273 2.4565 19.0085 2.6753C18.7897 2.89409 18.6668 3.19084 18.6668 3.50025V5.83359H9.3335V3.50025C9.3335 3.19084 9.21058 2.89409 8.99179 2.6753C8.77299 2.4565 8.47625 2.33359 8.16683 2.33359C7.85741 2.33359 7.56066 2.4565 7.34187 2.6753C7.12308 2.89409 7.00016 3.19084 7.00016 3.50025V5.83359H5.8335C4.90524 5.83359 4.015 6.20234 3.35862 6.85871C2.70225 7.51509 2.3335 8.40533 2.3335 9.33359V10.5003H25.6668V9.33359C25.6668 8.40533 25.2981 7.51509 24.6417 6.85871C23.9853 6.20234 23.0951 5.83359 22.1668 5.83359Z" fill="#A5A5A5"/>
<path d="M2.3335 22.1669C2.3335 23.0952 2.70225 23.9854 3.35862 24.6418C4.015 25.2982 4.90524 25.6669 5.8335 25.6669H22.1668C23.0951 25.6669 23.9853 25.2982 24.6417 24.6418C25.2981 23.9854 25.6668 23.0952 25.6668 22.1669V12.8336H2.3335V22.1669Z" fill="#A5A5A5"/>
</svg>
