<svg width="28" height="28" viewBox="0 0 28 28" fill="none" xmlns="http://www.w3.org/2000/svg">
<path d="M13.9999 2.33337C11.7517 2.33343 9.55146 2.98304 7.66379 4.20405C5.77611 5.42507 4.28142 7.16548 3.35953 9.21592C2.43763 11.2664 2.1278 13.5395 2.4673 15.7619C2.8068 17.9842 3.78117 20.0612 5.27321 21.7429C5.38224 21.8655 5.51591 21.9638 5.66549 22.0313C5.81507 22.0989 5.97721 22.1341 6.14132 22.1347C16.1001 22.1749 11.6299 22.1662 21.8298 22.1632C21.9939 22.1633 22.1562 22.1288 22.306 22.0618C22.4558 21.9949 22.5898 21.897 22.6991 21.7747C24.1998 20.0957 25.1824 18.0183 25.5286 15.7932C25.8747 13.5681 25.5694 11.2904 24.6497 9.23494C23.73 7.17947 22.235 5.4341 20.3453 4.20946C18.4555 2.98482 16.2517 2.33325 13.9999 2.33337ZM19.3558 11.4411L17.3165 12.9344C17.4332 13.2778 17.4951 13.6374 17.4999 14C17.5031 14.7827 17.245 15.5441 16.7665 16.1634C16.2879 16.7828 15.6163 17.2247 14.8582 17.4191C14.1 17.6135 13.2987 17.5492 12.5812 17.2365C11.8636 16.9238 11.2711 16.3805 10.8973 15.6929C10.5236 15.0052 10.3901 14.2124 10.518 13.4402C10.6459 12.6681 11.0279 11.9607 11.6034 11.4303C12.179 10.8998 12.9151 10.5767 13.6951 10.512C14.4751 10.4474 15.2544 10.645 15.9094 11.0735L17.9773 9.55889C18.2272 9.38212 18.5365 9.31063 18.8386 9.35984C19.1407 9.40906 19.4114 9.57503 19.5923 9.82197C19.7731 10.0689 19.8497 10.377 19.8055 10.6799C19.7612 10.9828 19.5997 11.2562 19.3558 11.4411Z" fill="#3E7687"/>
<path d="M14.0002 15.1667C14.6445 15.1667 15.1668 14.6444 15.1668 14C15.1668 13.3557 14.6445 12.8334 14.0002 12.8334C13.3558 12.8334 12.8335 13.3557 12.8335 14C12.8335 14.6444 13.3558 15.1667 14.0002 15.1667Z" fill="#3E7687"/>
</svg>
