<svg width="28" height="28" viewBox="0 0 28 28" fill="none" xmlns="http://www.w3.org/2000/svg">
<path d="M9.3335 2.33331H5.8335C3.9005 2.33331 2.3335 3.90032 2.3335 5.83331V9.33331C2.3335 11.2663 3.9005 12.8333 5.8335 12.8333H9.3335C11.2665 12.8333 12.8335 11.2663 12.8335 9.33331V5.83331C12.8335 3.90032 11.2665 2.33331 9.3335 2.33331Z" fill="#A5A5A5"/>
<path d="M22.167 2.33331H18.667C16.734 2.33331 15.167 3.90032 15.167 5.83331V9.33331C15.167 11.2663 16.734 12.8333 18.667 12.8333H22.167C24.1 12.8333 25.667 11.2663 25.667 9.33331V5.83331C25.667 3.90032 24.1 2.33331 22.167 2.33331Z" fill="#A5A5A5"/>
<path d="M9.3335 15.1667H5.8335C3.9005 15.1667 2.3335 16.7337 2.3335 18.6667V22.1667C2.3335 24.0997 3.9005 25.6667 5.8335 25.6667H9.3335C11.2665 25.6667 12.8335 24.0997 12.8335 22.1667V18.6667C12.8335 16.7337 11.2665 15.1667 9.3335 15.1667Z" fill="#A5A5A5"/>
<path d="M22.167 15.1667H18.667C16.734 15.1667 15.167 16.7337 15.167 18.6667V22.1667C15.167 24.0997 16.734 25.6667 18.667 25.6667H22.167C24.1 25.6667 25.667 24.0997 25.667 22.1667V18.6667C25.667 16.7337 24.1 15.1667 22.167 15.1667Z" fill="#A5A5A5"/>
</svg>
