<svg width="72" height="72" viewBox="0 0 72 72" fill="none" xmlns="http://www.w3.org/2000/svg">
<rect width="72" height="72" rx="36" fill="#F4F5F7"/>
<g clip-path="url(#clip0)">
<path d="M35.772 35.4146C37.8896 35.4146 39.7234 34.655 41.2217 33.1565C42.72 31.6582 43.4795 29.825 43.4795 27.707C43.4795 25.5898 42.72 23.7563 41.2214 22.2576C39.7229 20.7595 37.8894 20 35.772 20C33.6541 20 31.8208 20.7595 30.3225 22.2578C28.8242 23.7561 28.0645 25.5896 28.0645 27.707C28.0645 29.825 28.8242 31.6584 30.3228 33.1567C31.8213 34.6548 33.6548 35.4146 35.772 35.4146Z" fill="#DAE3E6"/>
<path d="M49.2581 44.6064C49.2148 43.9829 49.1274 43.3027 48.9988 42.5845C48.8689 41.8608 48.7017 41.1768 48.5015 40.5515C48.2947 39.9053 48.0134 39.2671 47.6658 38.6555C47.3049 38.0208 46.8811 37.468 46.4055 37.0132C45.9082 36.5374 45.2993 36.1548 44.5952 35.8757C43.8936 35.5981 43.116 35.4575 42.2842 35.4575C41.9575 35.4575 41.6416 35.5916 41.0315 35.9888C40.656 36.2336 40.2168 36.5168 39.7266 36.8301C39.3074 37.0972 38.7395 37.3474 38.0381 37.574C37.3538 37.7954 36.6589 37.9077 35.9731 37.9077C35.2874 37.9077 34.5928 37.7954 33.9077 37.574C33.207 37.3477 32.6392 37.0974 32.2205 36.8303C31.7349 36.52 31.2954 36.2368 30.9143 35.9885C30.3049 35.5913 29.9888 35.4573 29.6621 35.4573C28.8301 35.4573 28.0527 35.5981 27.3513 35.876C26.6477 36.1545 26.0386 36.5371 25.5408 37.0134C25.0654 37.4685 24.6414 38.021 24.281 38.6555C23.9336 39.2671 23.6523 39.905 23.4453 40.5518C23.2454 41.177 23.0781 41.8608 22.9482 42.5845C22.8196 43.3018 22.7322 43.9822 22.689 44.6072C22.6465 45.2195 22.625 45.855 22.625 46.4968C22.625 48.1672 23.156 49.5195 24.2031 50.5168C25.2373 51.501 26.6057 52.0002 28.2698 52.0002H43.678C45.342 52.0002 46.71 51.5012 47.7444 50.5168C48.7917 49.5203 49.3228 48.1677 49.3228 46.4966C49.3225 45.8518 49.3008 45.2158 49.2581 44.6064Z" fill="#2E7B8C"/>
</g>
<defs>
<clipPath id="clip0">
<rect width="32" height="32.0001" fill="white" transform="translate(20 20)"/>
</clipPath>
</defs>
</svg>
