<svg width="72" height="72" viewBox="0 0 72 72" fill="none" xmlns="http://www.w3.org/2000/svg">
<rect width="72" height="72" rx="36" fill="#F4F5F7"/>
<path d="M30.16 41.9543L30.63 41.4261C30.2866 40.3287 30.2857 39.1205 30.6525 38.0049C27.9513 39.4889 24.5314 38.8976 22.49 36.483C20.9737 37.6855 20 39.5436 20 41.6249V50.9999C20 51.5174 20.42 51.9374 20.9375 51.9374H28.6613C28.5569 51.6443 28.5 51.3286 28.5 50.9999V46.3124C28.5 44.7049 29.0894 43.1568 30.16 41.9543Z" fill="#2E7B8C"/>
<path d="M27.5 36.9374C30.0888 36.9374 32.1875 34.8387 32.1875 32.2499C32.1875 29.661 30.0888 27.5624 27.5 27.5624C24.9112 27.5624 22.8125 29.661 22.8125 32.2499C22.8125 34.8387 24.9112 36.9374 27.5 36.9374Z" fill="#DAE3E6"/>
<path d="M49.5099 36.483C47.4648 38.9019 44.0426 39.4868 41.3474 38.0043C41.7137 39.1221 41.7137 40.3272 41.3699 41.4261L41.8399 41.9543C42.9105 43.1568 43.4999 44.7049 43.4999 46.3124V50.9999C43.4999 51.3286 43.443 51.6443 43.3387 51.9374H51.0624C51.5799 51.9374 51.9999 51.5174 51.9999 50.9999V41.6249C51.9999 39.5436 51.0262 37.6855 49.5099 36.483Z" fill="#2E7B8C"/>
<path d="M44.5 36.9374C47.0888 36.9374 49.1875 34.8387 49.1875 32.2499C49.1875 29.661 47.0888 27.5624 44.5 27.5624C41.9112 27.5624 39.8125 29.661 39.8125 32.2499C39.8125 34.8387 41.9112 36.9374 44.5 36.9374Z" fill="#DAE3E6"/>
<path d="M36 45.3749C34.1975 45.3749 32.5906 44.523 31.5606 43.2005C30.8231 44.0293 30.375 45.1192 30.375 46.3124V50.9999C30.375 51.5174 30.795 51.9374 31.3125 51.9374H40.6875C41.205 51.9374 41.625 51.5174 41.625 50.9999V46.3124C41.625 45.1192 41.1769 44.0293 40.4394 43.2005C39.4094 44.523 37.8025 45.3749 36 45.3749Z" fill="#2E7B8C"/>
<path d="M36 43.4999C38.0711 43.4999 39.75 41.8209 39.75 39.7499C39.75 37.6788 38.0711 35.9999 36 35.9999C33.9289 35.9999 32.25 37.6788 32.25 39.7499C32.25 41.8209 33.9289 43.4999 36 43.4999Z" fill="#DAE3E6"/>
<path d="M33.3324 27.6245C34.4028 28.6137 35.4639 29.2707 35.5085 29.2982C35.8099 29.4837 36.19 29.4837 36.4914 29.2982C36.5361 29.2707 37.5971 28.6137 38.6675 27.6245C40.2153 26.1941 41 24.8036 41 23.4915C41 20.5117 38.0369 19.1131 36 20.7684C33.9586 19.1094 31 20.5196 31 23.4915C31 24.8036 31.7847 26.1941 33.3324 27.6245Z" fill="#2E7B8C"/>
</svg>
