<svg width="72" height="72" viewBox="0 0 72 72" fill="none" xmlns="http://www.w3.org/2000/svg">
<rect width="72" height="72" rx="36" fill="#F4F5F7"/>
<path d="M29.7078 23.5714C26.4871 23.5714 23.8669 26.3495 23.8669 29.7643C23.8669 33.179 26.4871 35.9571 29.7078 35.9571C32.9285 35.9571 35.5488 33.179 35.5488 29.7643C35.5488 26.3495 32.9286 23.5714 29.7078 23.5714Z" fill="#DAE3E6"/>
<path d="M42.9874 24.4576C42.9742 24.4576 42.9608 24.4576 42.9476 24.4577C41.596 24.4689 40.3335 25.0396 39.3927 26.0648C38.4685 27.0718 37.9659 28.4004 37.9775 29.8056C37.9891 31.2109 38.5136 32.5309 39.4542 33.5227C40.4024 34.5221 41.6583 35.071 42.9949 35.071C43.0084 35.071 43.0218 35.0709 43.0353 35.0709C44.3869 35.0597 45.6494 34.4889 46.5902 33.4638C47.5144 32.4568 48.017 31.1282 48.0054 29.7229C47.9814 26.8108 45.7342 24.4576 42.9874 24.4576Z" fill="#DAE3E6"/>
<path d="M43.2338 36.0849H42.7488C40.4901 36.0849 38.4288 36.9436 36.8726 38.3511C37.2619 38.6499 37.6326 38.9755 37.9838 39.3267C39.0201 40.363 39.8338 41.5705 40.4026 42.9155C40.9151 44.1267 41.2076 45.403 41.2757 46.7174H52.0001V44.8505C52.0001 40.0174 48.0676 36.0849 43.2338 36.0849Z" fill="#2E7B8C"/>
<path d="M39.3969 46.7174C39.22 43.868 37.7756 41.3617 35.62 39.7555C34.0519 38.5867 32.1069 37.8949 30 37.8949H29.4163C24.2156 37.8949 20 42.1105 20 47.3111V48.4286H39.4156V47.3111C39.4156 47.1117 39.4094 46.9136 39.3969 46.7174Z" fill="#2E7B8C"/>
</svg>
