<svg width="72" height="72" viewBox="0 0 72 72" fill="none" xmlns="http://www.w3.org/2000/svg">
<rect width="72" height="72" rx="36" fill="#F4F5F7"/>
<path d="M24.6875 44.5C26.2384 44.5 27.5 43.2384 27.5 41.6875C27.5 40.4669 26.7139 39.436 25.625 39.0477V36.875H35.0625V39.0477C33.9736 39.436 33.1875 40.4669 33.1875 41.6875C33.1875 43.2384 34.4491 44.5 36 44.5C37.5509 44.5 38.8125 43.2384 38.8125 41.6875C38.8125 40.4669 38.0264 39.436 36.9375 39.0477V36.875H46.375V39.0477C45.2861 39.436 44.5 40.4669 44.5 41.6875C44.5 43.2384 45.7616 44.5 47.3125 44.5C48.8634 44.5 50.125 43.2384 50.125 41.6875C50.125 40.4669 49.3389 39.436 48.25 39.0477V35H36.9375V33.0302C40.1094 32.5704 42.5625 29.8597 42.5625 26.5625C42.5625 22.9443 39.6182 20 36 20C32.3818 20 29.4375 22.9443 29.4375 26.5625C29.4375 29.8597 31.8906 32.5704 35.0625 33.0302V35H23.75V39.0477C22.6611 39.436 21.875 40.4669 21.875 41.6875C21.875 43.2384 23.1366 44.5 24.6875 44.5ZM33.8503 25.8997L35.0625 27.1118L38.1497 24.0246L39.4754 25.3503L35.0625 29.7632L32.5247 27.2254L33.8503 25.8997Z" fill="#2E7B8C"/>
<path d="M25.625 48.25H23.75V44.5H20V52H29.375V44.5H25.625V48.25Z" fill="#DAE3E6"/>
<path d="M36.9375 48.25H35.0625V44.5H31.3125V52H40.6875V44.5H36.9375V48.25Z" fill="#DAE3E6"/>
<path d="M48.25 44.5V48.25H46.375V44.5H42.625V52H52V44.5H48.25Z" fill="#DAE3E6"/>
</svg>
